<svg width="2939" height="1955" xmlns="http://www.w3.org/2000/svg" xmlns:xlink="http://www.w3.org/1999/xlink" xml:space="preserve" overflow="hidden"><g transform="translate(-732 -260)"><path d="M735.5 308.9C735.5 296.529 745.529 286.5 757.9 286.5L1362.1 286.5C1374.47 286.5 1384.5 296.529 1384.5 308.9L1384.5 488.1C1384.5 500.471 1374.47 510.5 1362.1 510.5L757.9 510.5C745.529 510.5 735.5 500.471 735.5 488.1Z" stroke="#A02B93" stroke-width="6.875" stroke-miterlimit="8" fill="#F2CFEE" fill-rule="evenodd"/><text font-family="Aptos,Aptos_MSFontService,sans-serif" font-weight="700" font-size="50" transform="matrix(1 0 0 1 805.132 412)">Grundlagenermittlung</text><path d="M800.5 510.5 800.5 689.467 875.709 689.467" stroke="#0E4B66" stroke-width="6.875" stroke-miterlimit="8" fill="none" fill-rule="evenodd"/><path d="M875.5 599.9C875.5 587.529 885.529 577.5 897.9 577.5L1372.1 577.5C1384.47 577.5 1394.5 587.529 1394.5 599.9L1394.5 779.1C1394.5 791.471 1384.47 801.5 1372.1 801.5L897.9 801.5C885.529 801.5 875.5 791.471 875.5 779.1Z" stroke="#A02B93" stroke-width="6.875" stroke-miterlimit="8" fill="#FFFFFF" fill-rule="evenodd"/><text font-family="Aptos,Aptos_MSFontService,sans-serif" font-weight="400" font-size="41" transform="matrix(1 0 0 1 905.996 700)">Finanzierung organisieren</text><path d="M800.5 510.5 800.5 969.211 875.709 969.211" stroke="#0E4B66" stroke-width="6.875" stroke-miterlimit="8" fill="none" fill-rule="evenodd"/><path d="M875.5 879.9C875.5 867.529 885.529 857.5 897.9 857.5L1372.1 857.5C1384.47 857.5 1394.5 867.529 1394.5 879.9L1394.5 1059.1C1394.5 1071.47 1384.47 1081.5 1372.1 1081.5L897.9 1081.5C885.529 1081.5 875.5 1071.47 875.5 1059.1Z" stroke="#A02B93" stroke-width="6.875" stroke-miterlimit="8" fill="#FFFFFF" fill-rule="evenodd"/><text font-family="Aptos,Aptos_MSFontService,sans-serif" font-weight="400" font-size="41" transform="matrix(1 0 0 1 956.917 980)">Lastenheft erstellen</text><path d="M800.5 510.5 800.5 1248.96 875.709 1248.96" stroke="#000000" stroke-width="6.875" stroke-miterlimit="8" fill="none" fill-rule="evenodd"/><path d="M875.5 1159.9C875.5 1147.53 885.529 1137.5 897.9 1137.5L1372.1 1137.5C1384.47 1137.5 1394.5 1147.53 1394.5 1159.9L1394.5 1339.1C1394.5 1351.47 1384.47 1361.5 1372.1 1361.5L897.9 1361.5C885.529 1361.5 875.5 1351.47 875.5 1339.1Z" stroke="#A02B93" stroke-width="6.875" stroke-miterlimit="8" fill="#FFFFFF" fill-rule="evenodd"/><text font-family="Aptos,Aptos_MSFontService,sans-serif" font-weight="400" font-size="41" transform="matrix(1 0 0 1 963.345 1237)">Sicherheitskonzept </text><text font-family="Aptos,Aptos_MSFontService,sans-serif" font-weight="400" font-size="41" transform="matrix(1 0 0 1 1044.72 1282)">entwerfen</text><path d="M1496.5 308.9C1496.5 296.529 1506.53 286.5 1518.9 286.5L2122.1 286.5C2134.47 286.5 2144.5 296.529 2144.5 308.9L2144.5 488.1C2144.5 500.471 2134.47 510.5 2122.1 510.5L1518.9 510.5C1506.53 510.5 1496.5 500.471 1496.5 488.1Z" stroke="#A02B93" stroke-width="6.875" stroke-miterlimit="8" fill="#F2CFEE" fill-rule="evenodd"/><text font-family="Aptos,Aptos_MSFontService,sans-serif" font-weight="700" font-size="50" transform="matrix(1 0 0 1 1730.22 412)">Entwurf</text><path d="M1560.5 510.5 1560.5 689.467 1635.71 689.467" stroke="#0E4B66" stroke-width="6.875" stroke-miterlimit="8" fill="none" fill-rule="evenodd"/><path d="M1636.5 599.9C1636.5 587.529 1646.53 577.5 1658.9 577.5L2132.1 577.5C2144.47 577.5 2154.5 587.529 2154.5 599.9L2154.5 779.1C2154.5 791.471 2144.47 801.5 2132.1 801.5L1658.9 801.5C1646.53 801.5 1636.5 791.471 1636.5 779.1Z" stroke="#A02B93" stroke-width="6.875" stroke-miterlimit="8" fill="#FFFFFF" fill-rule="evenodd"/><text font-family="Aptos,Aptos_MSFontService,sans-serif" font-weight="400" font-size="41" transform="matrix(1 0 0 1 1691.39 700)">Mechanik konstruieren</text><path d="M1560.5 510.5 1560.5 969.211 1635.71 969.211" stroke="#0E4B66" stroke-width="6.875" stroke-miterlimit="8" fill="none" fill-rule="evenodd"/><path d="M1636.5 879.9C1636.5 867.529 1646.53 857.5 1658.9 857.5L2132.1 857.5C2144.47 857.5 2154.5 867.529 2154.5 879.9L2154.5 1059.1C2154.5 1071.47 2144.47 1081.5 2132.1 1081.5L1658.9 1081.5C1646.53 1081.5 1636.5 1071.47 1636.5 1059.1Z" stroke="#A02B93" stroke-width="6.875" stroke-miterlimit="8" fill="#FFFFFF" fill-rule="evenodd"/><text font-family="Aptos,Aptos_MSFontService,sans-serif" font-weight="400" font-size="41" transform="matrix(1 0 0 1 1717.89 957)">Softwarearchitektur </text><text font-family="Aptos,Aptos_MSFontService,sans-serif" font-weight="400" font-size="41" transform="matrix(1 0 0 1 1791.8 1002)">konzipieren</text><path d="M1560.5 510.5 1560.5 1238.59 1635.71 1238.59" stroke="#0E4B66" stroke-width="6.875" stroke-miterlimit="8" fill="none" fill-rule="evenodd"/><path d="M1636.5 1148.9C1636.5 1136.53 1646.53 1126.5 1658.9 1126.5L2132.1 1126.5C2144.47 1126.5 2154.5 1136.53 2154.5 1148.9L2154.5 1328.1C2154.5 1340.47 2144.47 1350.5 2132.1 1350.5L1658.9 1350.5C1646.53 1350.5 1636.5 1340.47 1636.5 1328.1Z" stroke="#A02B93" stroke-width="6.875" stroke-miterlimit="8" fill="#FFFFFF" fill-rule="evenodd"/><text font-family="Aptos,Aptos_MSFontService,sans-serif" font-weight="400" font-size="41" transform="matrix(1 0 0 1 1709.13 1249)">Sensoren auswählen</text><path d="M1560.5 510.5 1560.5 1518.34 1635.71 1518.34" stroke="#0E4B66" stroke-width="6.875" stroke-miterlimit="8" fill="none" fill-rule="evenodd"/><path d="M1636.5 1428.9C1636.5 1416.53 1646.53 1406.5 1658.9 1406.5L2132.1 1406.5C2144.47 1406.5 2154.5 1416.53 2154.5 1428.9L2154.5 1608.1C2154.5 1620.47 2144.47 1630.5 2132.1 1630.5L1658.9 1630.5C1646.53 1630.5 1636.5 1620.47 1636.5 1608.1Z" stroke="#A02B93" stroke-width="6.875" stroke-miterlimit="8" fill="#FFFFFF" fill-rule="evenodd"/><text font-family="Aptos,Aptos_MSFontService,sans-serif" font-weight="400" font-size="41" transform="matrix(1 0 0 1 1681.56 1529)">Schaltschrank auslegen</text><path d="M1560.5 510.5 1560.5 1798.08 1635.71 1798.08" stroke="#0E4B66" stroke-width="6.875" stroke-miterlimit="8" fill="none" fill-rule="evenodd"/><path d="M1636.5 1708.9C1636.5 1696.53 1646.53 1686.5 1658.9 1686.5L2132.1 1686.5C2144.47 1686.5 2154.5 1696.53 2154.5 1708.9L2154.5 1888.1C2154.5 1900.47 2144.47 1910.5 2132.1 1910.5L1658.9 1910.5C1646.53 1910.5 1636.5 1900.47 1636.5 1888.1Z" stroke="#A02B93" stroke-width="6.875" stroke-miterlimit="8" fill="#FFFFFF" fill-rule="evenodd"/><text font-family="Aptos,Aptos_MSFontService,sans-serif" font-weight="400" font-size="41" transform="matrix(1 0 0 1 1651.93 1786)">Kommunikationsmethoden </text><text font-family="Aptos,Aptos_MSFontService,sans-serif" font-weight="400" font-size="41" transform="matrix(1 0 0 1 1812.83 1831)">festlegen</text><path d="M1560.5 510.5 1560.5 2077.83 1635.71 2077.83" stroke="#000000" stroke-width="6.875" stroke-miterlimit="8" fill="none" fill-rule="evenodd"/><path d="M1636.5 1988.8C1636.5 1976.48 1646.48 1966.5 1658.8 1966.5L2132.2 1966.5C2144.52 1966.5 2154.5 1976.48 2154.5 1988.8L2154.5 2167.2C2154.5 2179.52 2144.52 2189.5 2132.2 2189.5L1658.8 2189.5C1646.48 2189.5 1636.5 2179.52 1636.5 2167.2Z" stroke="#A02B93" stroke-width="6.875" stroke-miterlimit="8" fill="#FFFFFF" fill-rule="evenodd"/><text font-family="Aptos,Aptos_MSFontService,sans-serif" font-weight="400" font-size="41" transform="matrix(1 0 0 1 1723.7 2066)">Sicherheitskonzept </text><text font-family="Aptos,Aptos_MSFontService,sans-serif" font-weight="400" font-size="41" transform="matrix(1 0 0 1 1806.23 2111)">einbinden</text><path d="M2256.5 308.9C2256.5 296.529 2266.53 286.5 2278.9 286.5L2882.1 286.5C2894.47 286.5 2904.5 296.529 2904.5 308.9L2904.5 488.099C2904.5 500.47 2894.47 510.499 2882.1 510.499L2278.9 510.499C2266.53 510.499 2256.5 500.47 2256.5 488.099Z" stroke="#A02B93" stroke-width="6.875" stroke-miterlimit="8" fill="#F2CFEE" fill-rule="evenodd"/><text font-family="Aptos,Aptos_MSFontService,sans-serif" font-weight="700" font-size="50" transform="matrix(1 0 0 1 2450.34 412)">Umsetzung</text><path d="M2321.5 510.5 2321.5 679.103 2396.71 679.103" stroke="#000000" stroke-width="6.875" stroke-miterlimit="8" fill="none" fill-rule="evenodd"/><path d="M2396.5 589.9C2396.5 577.529 2406.53 567.5 2418.9 567.5L2893.1 567.5C2905.47 567.5 2915.5 577.529 2915.5 589.9L2915.5 769.1C2915.5 781.471 2905.47 791.5 2893.1 791.5L2418.9 791.5C2406.53 791.5 2396.5 781.471 2396.5 769.1Z" stroke="#A02B93" stroke-width="6.875" stroke-miterlimit="8" fill="#FFFFFF" fill-rule="evenodd"/><text font-family="Aptos,Aptos_MSFontService,sans-serif" font-weight="400" font-size="41" transform="matrix(1 0 0 1 2479.61 690)">Mechanik aufbauen</text><path d="M2321.5 510.5 2321.5 958.847 2396.71 958.847" stroke="#000000" stroke-width="6.875" stroke-miterlimit="8" fill="none" fill-rule="evenodd"/><path d="M2396.5 869.8C2396.5 857.484 2406.48 847.5 2418.8 847.5L2893.2 847.5C2905.52 847.5 2915.5 857.484 2915.5 869.8L2915.5 1048.2C2915.5 1060.52 2905.52 1070.5 2893.2 1070.5L2418.8 1070.5C2406.48 1070.5 2396.5 1060.52 2396.5 1048.2Z" stroke="#A02B93" stroke-width="6.875" stroke-miterlimit="8" fill="#FFFFFF" fill-rule="evenodd"/><text font-family="Aptos,Aptos_MSFontService,sans-serif" font-weight="400" font-size="41" transform="matrix(1 0 0 1 2433.9 970)">Software programmieren</text><path d="M2321.5 510.5 2321.5 1238.59 2396.71 1238.59" stroke="#0E4B66" stroke-width="6.875" stroke-miterlimit="8" fill="none" fill-rule="evenodd"/><path d="M2396.5 1148.9C2396.5 1136.53 2406.53 1126.5 2418.9 1126.5L2893.1 1126.5C2905.47 1126.5 2915.5 1136.53 2915.5 1148.9L2915.5 1328.1C2915.5 1340.47 2905.47 1350.5 2893.1 1350.5L2418.9 1350.5C2406.53 1350.5 2396.5 1340.47 2396.5 1328.1Z" stroke="#A02B93" stroke-width="6.875" stroke-miterlimit="8" fill="#FFFFFF" fill-rule="evenodd"/><text font-family="Aptos,Aptos_MSFontService,sans-serif" font-weight="400" font-size="41" transform="matrix(1 0 0 1 2458.75 1227)">Sensoren und Aktoren </text><text font-family="Aptos,Aptos_MSFontService,sans-serif" font-weight="400" font-size="41" transform="matrix(1 0 0 1 2571.41 1272)">anbinden</text><path d="M2321.5 510.5 2321.5 1518.34 2396.71 1518.34" stroke="#000000" stroke-width="6.875" stroke-miterlimit="8" fill="none" fill-rule="evenodd"/><path d="M2396.5 1428.9C2396.5 1416.53 2406.53 1406.5 2418.9 1406.5L2893.1 1406.5C2905.47 1406.5 2915.5 1416.53 2915.5 1428.9L2915.5 1608.1C2915.5 1620.47 2905.47 1630.5 2893.1 1630.5L2418.9 1630.5C2406.53 1630.5 2396.5 1620.47 2396.5 1608.1Z" stroke="#A02B93" stroke-width="6.875" stroke-miterlimit="8" fill="#FFFFFF" fill-rule="evenodd"/><text font-family="Aptos,Aptos_MSFontService,sans-serif" font-weight="400" font-size="41" transform="matrix(1 0 0 1 2435.62 1529)">Schaltschrank verkabeln</text><path d="M3016.5 308.9C3016.5 296.529 3026.53 286.5 3038.9 286.5L3643.1 286.5C3655.47 286.5 3665.5 296.529 3665.5 308.9L3665.5 488.1C3665.5 500.471 3655.47 510.5 3643.1 510.5L3038.9 510.5C3026.53 510.5 3016.5 500.471 3016.5 488.1Z" stroke="#A02B93" stroke-width="6.875" stroke-miterlimit="8" fill="#F2CFEE" fill-rule="evenodd"/><text font-family="Aptos,Aptos_MSFontService,sans-serif" font-weight="700" font-size="50" transform="matrix(1 0 0 1 3156.34 412)">Inbetriebnahme</text><path d="M3081.5 510.5 3081.5 678.346 3146.35 678.346" stroke="#000000" stroke-width="6.875" stroke-miterlimit="8" fill="none" fill-rule="evenodd"/><path d="M3146.5 588.9C3146.5 576.529 3156.53 566.5 3168.9 566.5L3643.1 566.5C3655.47 566.5 3665.5 576.529 3665.5 588.9L3665.5 768.1C3665.5 780.471 3655.47 790.5 3643.1 790.5L3168.9 790.5C3156.53 790.5 3146.5 780.471 3146.5 768.1Z" stroke="#A02B93" stroke-width="6.875" stroke-miterlimit="8" fill="#FFFFFF" fill-rule="evenodd"/><text font-family="Aptos,Aptos_MSFontService,sans-serif" font-weight="400" font-size="41" transform="matrix(1 0 0 1 3299.55 667)">SPS</text><text font-family="Aptos,Aptos_MSFontService,sans-serif" font-weight="400" font-size="41" transform="matrix(1 0 0 1 3370.07 667)">-</text><text font-family="Aptos,Aptos_MSFontService,sans-serif" font-weight="400" font-size="41" transform="matrix(1 0 0 1 3384.12 667)">Server</text><text font-family="Aptos,Aptos_MSFontService,sans-serif" font-weight="400" font-size="41" transform="matrix(1 0 0 1 3497.17 667)">-</text><text font-family="Aptos,Aptos_MSFontService,sans-serif" font-weight="400" font-size="41" transform="matrix(1 0 0 1 3172.28 712)">Kommunikation aufsetzen</text><path d="M3081.5 510.5 3081.5 958.847 3148.24 958.847" stroke="#000000" stroke-width="6.875" stroke-miterlimit="8" fill="none" fill-rule="evenodd"/><path d="M3148.5 869.8C3148.5 857.484 3158.48 847.5 3170.8 847.5L3645.2 847.5C3657.52 847.5 3667.5 857.484 3667.5 869.8L3667.5 1048.2C3667.5 1060.52 3657.52 1070.5 3645.2 1070.5L3170.8 1070.5C3158.48 1070.5 3148.5 1060.52 3148.5 1048.2Z" stroke="#A02B93" stroke-width="6.875" stroke-miterlimit="8" fill="#FFFFFF" fill-rule="evenodd"/><text font-family="Aptos,Aptos_MSFontService,sans-serif" font-weight="400" font-size="41" transform="matrix(1 0 0 1 3207.77 947)">Sicherheitstechnische </text><text font-family="Aptos,Aptos_MSFontService,sans-serif" font-weight="400" font-size="41" transform="matrix(1 0 0 1 3337.89 992)">Prüfung</text><path d="M3081.5 510.5 3081.5 1238.59 3148.24 1238.59" stroke="#000000" stroke-width="6.875" stroke-miterlimit="8" fill="none" fill-rule="evenodd"/><path d="M3148.5 1148.9C3148.5 1136.53 3158.53 1126.5 3170.9 1126.5L3645.1 1126.5C3657.47 1126.5 3667.5 1136.53 3667.5 1148.9L3667.5 1328.1C3667.5 1340.47 3657.47 1350.5 3645.1 1350.5L3170.9 1350.5C3158.53 1350.5 3148.5 1340.47 3148.5 1328.1Z" stroke="#A02B93" stroke-width="6.875" stroke-miterlimit="8" fill="#FFFFFF" fill-rule="evenodd"/><text font-family="Aptos,Aptos_MSFontService,sans-serif" font-weight="400" font-size="41" transform="matrix(1 0 0 1 3306.49 1249)">Testbetrieb</text><path d="M3081.5 510.5 3081.5 1518.34 3148.24 1518.34" stroke="#000000" stroke-width="6.875" stroke-miterlimit="8" fill="none" fill-rule="evenodd"/><path d="M3148.5 1428.9C3148.5 1416.53 3158.53 1406.5 3170.9 1406.5L3645.1 1406.5C3657.47 1406.5 3667.5 1416.53 3667.5 1428.9L3667.5 1608.1C3667.5 1620.47 3657.47 1630.5 3645.1 1630.5L3170.9 1630.5C3158.53 1630.5 3148.5 1620.47 3148.5 1608.1Z" stroke="#A02B93" stroke-width="6.875" stroke-miterlimit="8" fill="#FFFFFF" fill-rule="evenodd"/><text font-family="Aptos,Aptos_MSFontService,sans-serif" font-weight="400" font-size="41" transform="matrix(1 0 0 1 3287 1507)">Schulung des </text><text font-family="Aptos,Aptos_MSFontService,sans-serif" font-weight="400" font-size="41" transform="matrix(1 0 0 1 3174.28 1552)">Instandhaltungspersonals</text></g></svg>