<svg width="1280" height="720" xmlns="http://www.w3.org/2000/svg" xmlns:xlink="http://www.w3.org/1999/xlink" overflow="hidden"><g><rect x="0" y="0" width="1280" height="720" fill="#FFFFFF"/><path d="M205 61 862.548 61.0001" stroke="#000000" stroke-width="2" stroke-miterlimit="8" fill="none" fill-rule="evenodd"/><rect x="527" y="160" width="120" height="120" stroke="#000000" stroke-width="2" stroke-miterlimit="8" fill="none"/><path d="M571 203 571 237" stroke="#000000" stroke-width="2" stroke-miterlimit="8" fill="none" fill-rule="evenodd"/><path d="M570.4 214.4 556 200" stroke="#000000" stroke-width="2" stroke-miterlimit="8" fill="none" fill-rule="evenodd"/><path d="M0 0 14.4 14.4" stroke="#000000" stroke-width="2" stroke-miterlimit="8" fill="none" fill-rule="evenodd" transform="matrix(-1 0 0 1 570.4 225)"/><path d="M0 0 0.000104987 142.297" stroke="#000000" stroke-width="2" stroke-miterlimit="8" fill="none" fill-rule="evenodd" transform="matrix(1 0 0 -1 556 202.297)"/><path d="M565.451 235.067 558.668 237.346 560.914 230.552Z" stroke="#000000" stroke-width="2" stroke-miterlimit="8" fill-rule="evenodd"/><path d="M613 120 613 317.92" stroke="#000000" stroke-width="2" stroke-miterlimit="8" fill="none" fill-rule="evenodd"/><path d="M612 318 700.007 318.8" stroke="#000000" stroke-width="2" stroke-miterlimit="8" fill="none" fill-rule="evenodd"/><path d="M0 0 1.6 91.2" stroke="#000000" stroke-width="2" stroke-miterlimit="8" fill="none" fill-rule="evenodd" transform="matrix(1 0 0 -1 698 319.2)"/><rect x="694" y="192" width="13" height="36" stroke="#000000" stroke-width="2" stroke-miterlimit="8" fill="none"/><path d="M700.38 192.097 700 61" stroke="#000000" stroke-width="2" stroke-miterlimit="8" fill="none" fill-rule="evenodd"/><path d="M604 213 622.6 213" stroke="#000000" stroke-width="2" stroke-miterlimit="8" fill="none" fill-rule="evenodd"/><path d="M606 232 613 214 620 232Z" stroke="#000000" stroke-width="2" stroke-miterlimit="8" fill-rule="evenodd"/><path d="M600.628 219.02 592.898 213.632 594.041 211.992 601.772 217.38ZM592.276 216.856 588 209 596.85 210.293Z"/><path d="M597.628 230.02 589.898 224.632 591.041 222.992 598.772 228.38ZM589.276 227.856 585 220 593.85 221.293Z"/><text font-family="Aptos,Aptos_MSFontService,sans-serif" font-weight="400" font-size="19" transform="translate(628.891 183)">K</text><text font-family="Aptos,Aptos_MSFontService,sans-serif" font-weight="400" font-size="19" transform="translate(629.862 272)">A</text><text font-family="Aptos,Aptos_MSFontService,sans-serif" font-weight="400" font-size="19" transform="translate(535.662 274)">E</text><text font-family="Aptos,Aptos_MSFontService,sans-serif" font-weight="400" font-size="19" transform="translate(533.274 180)">C</text><text font-family="Aptos,Aptos_MSFontService,sans-serif" font-weight="400" font-size="19" transform="translate(716.747 215)">R</text><text font-family="Aptos,Aptos_MSFontService,sans-serif" font-weight="400" font-size="19" transform="translate(728.081 215)">1</text><text font-family="Aptos,Aptos_MSFontService,sans-serif" font-weight="400" font-size="19" transform="translate(215.019 50)">+24V</text><path d="M205 567 862.549 567" stroke="#000000" stroke-width="2" stroke-miterlimit="8" fill="none" fill-rule="evenodd"/><text font-family="Aptos,Aptos_MSFontService,sans-serif" font-weight="400" font-size="19" transform="translate(215.019 556)">GN</text><text font-family="Aptos,Aptos_MSFontService,sans-serif" font-weight="400" font-size="19" transform="translate(241.353 556)">D</text><path d="M557 239 557 390.716" stroke="#000000" stroke-width="2" stroke-miterlimit="8" fill="none" fill-rule="evenodd"/><path d="M0 0 143.092 0.000104987" stroke="#000000" stroke-width="2" stroke-miterlimit="8" fill="none" fill-rule="evenodd" transform="matrix(-1 0 0 1 556.092 320)"/><rect x="478" y="354" width="13" height="36" stroke="#000000" stroke-width="2" stroke-miterlimit="8" fill="none"/><rect x="407" y="354" width="13" height="36" stroke="#000000" stroke-width="2" stroke-miterlimit="8" fill="none"/><path d="M493.6 433 475 433" stroke="#000000" stroke-width="2" stroke-miterlimit="8" fill="none" fill-rule="evenodd"/><path d="M491 414 484 432 477 414Z" stroke="#000000" stroke-width="2" stroke-miterlimit="8" fill-rule="evenodd"/><path d="M502.572 416.18 510.302 421.568 509.159 423.208 501.428 417.82ZM510.924 418.344 515.2 426.2 506.35 424.907Z"/><path d="M500.572 427.18 508.302 432.568 507.159 434.208 499.428 428.82ZM508.924 429.344 513.2 437.2 504.35 435.907Z"/><path d="M0 0 0.562415 24.5493" stroke="#000000" stroke-width="2" stroke-miterlimit="8" fill="none" fill-rule="evenodd" transform="matrix(1 0 0 -1 484 414.549)"/><path d="M0 0 0.000104987 32.6508" stroke="#000000" stroke-width="2" stroke-miterlimit="8" fill="none" fill-rule="evenodd" transform="matrix(1 0 0 -1 485 353.651)"/><path d="M0 0 0.147402 34.5093" stroke="#000000" stroke-width="2" stroke-miterlimit="8" fill="none" fill-rule="evenodd" transform="matrix(1 0 0 -1 413 353.509)"/><path d="M413 390 413 566.794" stroke="#000000" stroke-width="2" stroke-miterlimit="8" fill="none" fill-rule="evenodd"/><path d="M484 432 484 459.262" stroke="#000000" stroke-width="2" stroke-miterlimit="8" fill="none" fill-rule="evenodd"/><path d="M484 492 484 566.343" stroke="#000000" stroke-width="2" stroke-miterlimit="8" fill="none" fill-rule="evenodd"/><path d="M0 0 16.4514 0.000104987" stroke="#000000" stroke-width="2" stroke-miterlimit="8" fill="none" fill-rule="evenodd" transform="matrix(-1 0 0 1 484.451 460)"/><path d="M0 0 16.4514 0.000104987" stroke="#000000" stroke-width="2" stroke-miterlimit="8" fill="none" fill-rule="evenodd" transform="matrix(-1 0 0 1 484.451 493)"/><path d="M475 454 475 499.44" stroke="#000000" stroke-width="2" stroke-miterlimit="8" fill="none" fill-rule="evenodd"/><text font-family="Aptos,Aptos_MSFontService,sans-serif" font-weight="400" font-size="19" transform="translate(439.406 484)">JP1</text><text font-family="Aptos,Aptos_MSFontService,sans-serif" font-weight="400" font-size="19" transform="translate(450.234 377)">R2</text><text font-family="Aptos,Aptos_MSFontService,sans-serif" font-weight="400" font-size="19" transform="translate(377.39 378)">R3</text><text font-family="Aptos,Aptos_MSFontService,sans-serif" font-weight="400" font-size="19" transform="translate(425.282 431)">LED1</text><path d="M613 120 765.133 120" stroke="#000000" stroke-width="2" stroke-miterlimit="8" fill="none" fill-rule="evenodd"/><path d="M765 120 765 566.823" stroke="#000000" stroke-width="2" stroke-miterlimit="8" fill="none" fill-rule="evenodd"/><path d="M552 394C552 391.791 554.015 390 556.5 390 558.985 390 561 391.791 561 394 561 396.209 558.985 398 556.5 398 554.015 398 552 396.209 552 394Z" stroke="#042433" stroke-width="2" stroke-miterlimit="8" fill="none" fill-rule="evenodd"/><path d="M199 566.5C199 564.015 200.791 562 203 562 205.209 562 207 564.015 207 566.5 207 568.985 205.209 571 203 571 200.791 571 199 568.985 199 566.5Z" stroke="#042433" stroke-width="2" stroke-miterlimit="8" fill="none" fill-rule="evenodd"/><path d="M198 60C198 57.7909 199.791 56 202 56 204.209 56 206 57.7909 206 60 206 62.2091 204.209 64 202 64 199.791 64 198 62.2091 198 60Z" stroke="#042433" stroke-width="2" stroke-miterlimit="8" fill="none" fill-rule="evenodd"/><text font-family="Aptos,Aptos_MSFontService,sans-serif" font-weight="400" font-size="19" transform="translate(567.7 397)">X</text><text font-family="Aptos,Aptos_MSFontService,sans-serif" font-weight="400" font-size="19" transform="translate(578.033 397)">1</text><path d="M481 566.5C481 564.015 482.791 562 485 562 487.209 562 489 564.015 489 566.5 489 568.985 487.209 571 485 571 482.791 571 481 568.985 481 566.5Z" fill-rule="evenodd"/><path d="M409 566C409 563.791 410.791 562 413 562 415.209 562 417 563.791 417 566 417 568.209 415.209 570 413 570 410.791 570 409 568.209 409 566Z" fill-rule="evenodd"/><path d="M762 566C762 563.791 763.791 562 766 562 768.209 562 770 563.791 770 566 770 568.209 768.209 570 766 570 763.791 570 762 568.209 762 566Z" fill-rule="evenodd"/><path d="M481 320C481 317.791 482.791 316 485 316 487.209 316 489 317.791 489 320 489 322.209 487.209 324 485 324 482.791 324 481 322.209 481 320Z" fill-rule="evenodd"/><path d="M552 320C552 317.791 554.015 316 556.5 316 558.985 316 561 317.791 561 320 561 322.209 558.985 324 556.5 324 554.015 324 552 322.209 552 320Z" fill-rule="evenodd"/><path d="M696 61C696 58.7909 697.791 57 700 57 702.209 57 704 58.7909 704 61 704 63.2091 702.209 65 700 65 697.791 65 696 63.2091 696 61Z" fill-rule="evenodd"/><path d="M552 61C552 58.7909 553.791 57 556 57 558.209 57 560 58.7909 560 61 560 63.2091 558.209 65 556 65 553.791 65 552 63.2091 552 61Z" fill-rule="evenodd"/></g></svg>